<svg xmlns="http://www.w3.org/2000/svg" xmlns:xlink="http://www.w3.org/1999/xlink" viewBox="0,0,256,256" width="50px" height="50px" fill-rule="nonzero"><g fill="#32edc1" fill-rule="nonzero" stroke="none" stroke-width="1" stroke-linecap="butt" stroke-linejoin="miter" stroke-miterlimit="10" stroke-dasharray="" stroke-dashoffset="0" font-family="none" font-weight="none" font-size="none" text-anchor="none" style="mix-blend-mode: normal"><g transform="scale(5.12,5.12)"><path d="M24.9375,2c-12.42578,0 -18.9375,13.81641 -18.9375,18.59375c0,2.24219 0.4375,3.8125 0.875,4.875c-0.64062,0.21484 -1.16797,0.71094 -1.53125,1.34375c-0.48437,0.84375 -0.75,1.95313 -0.75,3.3125c0,2.10547 0.75781,4.17969 1.78125,5.78125c1.02344,1.60156 2.28516,2.90625 3.9375,2.90625c0.02344,0 0.03906,0 0.0625,0c1.12891,3.90234 4.41406,5.35547 6.34375,6.21875c0.33594,0.14844 0.65625,0.30469 0.90625,0.4375c0.46484,0.24219 0.88281,0.47656 1.28125,0.71875c1.53906,0.92969 2.98438,1.8125 6.09375,1.8125c3.10938,0 4.55469,-0.88281 6.09375,-1.8125c0.39844,-0.24219 0.81641,-0.47656 1.28125,-0.71875c0.25,-0.13281 0.57031,-0.28906 0.90625,-0.4375c1.92969,-0.86328 5.21484,-2.31641 6.34375,-6.21875c0.02344,0 0.03906,0 0.0625,0c1.65234,0 2.91406,-1.30469 3.9375,-2.90625c1.02344,-1.60156 1.78125,-3.67578 1.78125,-5.78125c0,-1.35937 -0.26562,-2.46875 -0.75,-3.3125c-0.35547,-0.61719 -0.875,-1.08984 -1.5,-1.3125c0.44141,-1.0625 0.875,-2.64453 0.875,-4.90625c0,-4.77734 -6.51172,-18.59375 -18.9375,-18.59375c-0.02734,0 -0.03516,0 -0.0625,0c-0.02734,0 -0.06641,0 -0.09375,0zM23.03125,4.53125l1.96875,2v0.0625l0.03125,-0.03125v-0.03125l1.96875,-2l2.71875,5.34375l-1.6875,1.125l-1.34375,-4.3125l-1.625,2.03125l-0.03125,-0.03125v-0.03125h-0.03125v0.03125l-0.03125,0.03125l-1.625,-2.03125l-1.34375,4.3125l-1.6875,-1.125zM25.03125,12c12.60156,0.00781 15.96875,7.93359 15.96875,9c0,2.09375 -0.94922,2.9375 -1,3h-1.96875c0.00391,-0.00391 0.875,-1.75 0.96875,-3c-0.22656,-1.06641 -3.61719,-6.98437 -13.96875,-7c-0.00781,0 -0.02344,0 -0.03125,0c-10.35156,0.01563 -13.74219,5.93359 -13.96875,7c0.09375,1.25 0.99609,2.99609 1,3c0.39453,-0.30469 1.08984,-0.74219 1.96875,-1.21875c-0.00391,0.39453 0.22266,0.75391 0.57813,0.92188c0.35547,0.16797 0.77734,0.11328 1.07813,-0.14062c0,0 1.32031,-1.03125 2.5625,-1.03125c1.92969,0 2.875,1.90625 2.875,1.90625c0.24219,0.5 0.84375,0.71094 1.34375,0.46875c0.5,-0.24219 0.71094,-0.84375 0.46875,-1.34375c0,0 -1.09375,-2.24609 -3.4375,-2.875c1.66406,-0.41016 3.51563,-0.6875 5.5625,-0.6875c2.02734,0 3.84766,0.28516 5.5,0.6875c-2.34375,0.62891 -3.4375,2.875 -3.4375,2.875c-0.24219,0.5 -0.03125,1.10156 0.46875,1.34375c0.5,0.24219 1.10156,0.03125 1.34375,-0.46875c0,0 0.94531,-1.90625 2.875,-1.90625c1.24219,0 2.5625,1.03125 2.5625,1.03125c0.30469,0.25781 0.73438,0.30859 1.09375,0.13281c0.35938,-0.17578 0.57813,-0.54687 0.5625,-0.94531c0.90625,0.48828 1.59766,0.9375 2,1.25c-0.41016,1.08984 -1,2.73438 -1,3.90625c0,0.67969 0.20313,1.90234 0.4375,3.3125c0.27344,1.64453 0.59375,3.51563 0.59375,4.625c0,4.89063 -3.21484,6.32422 -5.5625,7.375c-0.37891,0.16797 -0.71875,0.32031 -1,0.46875c-0.50391,0.26563 -0.97266,0.51953 -1.40625,0.78125c-1.40625,0.84766 -2.50781,1.53125 -5.0625,1.53125c-2.55469,0 -3.65625,-0.68359 -5.0625,-1.53125c-0.43359,-0.26172 -0.90234,-0.51562 -1.40625,-0.78125c-0.28125,-0.14844 -0.62109,-0.30078 -1,-0.46875c-2.35156,-1.05078 -5.5625,-2.48437 -5.5625,-7.375c0,-1.10937 0.32031,-2.98047 0.59375,-4.625c0.23438,-1.41016 0.4375,-2.63281 0.4375,-3.3125c0,-1.14062 -0.5625,-2.72656 -0.96875,-3.8125v-0.09375h-2c-0.05078,-0.0625 -1,-0.90625 -1,-3c0,-1.06641 3.39844,-8.99219 16,-9zM19.5,26c-0.82812,0 -1.5,1.09766 -1.5,2.46875c0,1.12109 0.44531,2.06641 1.0625,2.375c-0.65625,0.90625 -1.0625,1.98047 -1.0625,3.15625c0,0.24609 0.03125,0.48047 0.0625,0.71875c-3.43359,-0.86328 -3.8125,-2.25 -3.8125,-2.25c0,0 -0.6875,0.50391 -0.6875,2.8125c0,2.71875 2.21875,2.84375 2.21875,2.84375c0,0 0.25,2.65625 2.59375,2.65625c1.01172,0 1.57813,-0.43359 1.65625,-0.46875c0.13281,0.13281 1.20313,1.6875 2.8125,1.6875c1.25,0 2.125,-0.75 2.125,-0.75c0,0 0.98047,0.71875 2.3125,0.71875c1.51172,0 2.6875,-1.625 2.6875,-1.625c0,0 0.57422,0.4375 1.71875,0.4375c1.14453,0 2.30469,-0.82031 2.59375,-2.6875c0.93359,0 2.15625,-1.17187 2.15625,-2.71875c0,-2.31641 -0.6875,-2.875 -0.6875,-2.875c-0.76562,1.08594 -2.00781,1.76563 -3.8125,2.21875c0.03125,-0.23828 0.0625,-0.47266 0.0625,-0.71875c0,-1.17578 -0.40625,-2.25 -1.0625,-3.15625c0.61719,-0.30859 1.0625,-1.25391 1.0625,-2.375c0,-1.37109 -0.67187,-2.46875 -1.5,-2.46875c-0.82812,0 -1.5,1.09766 -1.5,2.46875c0,0.23047 0.02734,0.44531 0.0625,0.65625c-1.16016,-0.70703 -2.56641,-1.125 -4.0625,-1.125c-1.49609,0 -2.90234,0.41797 -4.0625,1.125c0.03516,-0.21094 0.0625,-0.42578 0.0625,-0.65625c0,-1.37109 -0.67187,-2.46875 -1.5,-2.46875zM7.5625,27.34375c0.83984,0 2.25391,0.29688 3.34375,1.375c-0.07812,0.61328 -0.17578,1.35156 -0.3125,2.15625c-0.28906,1.72266 -0.625,3.69531 -0.625,4.96875c0,0.30859 0.04297,0.58594 0.0625,0.875c-0.46484,-0.20312 -1.28906,-0.8125 -1.96875,-1.875c-0.83594,-1.30469 -1.46875,-3.10156 -1.46875,-4.71875c0,-1.09375 0.21875,-1.87891 0.46875,-2.3125c0.25,-0.43359 0.44531,-0.46875 0.5,-0.46875zM42.4375,27.34375c0.05469,0 0.25,0.03516 0.5,0.46875c0.25,0.43359 0.46875,1.21875 0.46875,2.3125c0,1.61719 -0.63281,3.41406 -1.46875,4.71875c-0.67969,1.0625 -1.50391,1.67188 -1.96875,1.875c0.01953,-0.28906 0.0625,-0.56641 0.0625,-0.875c0,-1.27344 -0.33594,-3.24609 -0.625,-4.96875c-0.13672,-0.80469 -0.23437,-1.54297 -0.3125,-2.15625c1.08984,-1.07812 2.50391,-1.375 3.34375,-1.375zM25,30c2.86328,0 5,1.88672 5,4c0,2.11328 -2.13672,4 -5,4c-2.86328,0 -5,-1.88672 -5,-4c0,-2.11328 2.13672,-4 5,-4z"></path></g></g></svg>